#!OML:ASF H:\LiuWeirdWalks\Patient Classification 1\Patient 1\Session 1\male.ASF
:FULLY-SPECIFIED
:DEGREES
112
root -1.52904 17.3612 -27.7331 7.01765 2.6767 -1.75809
lowerback 4.73246 -1.57022 -0.489659
upperback -2.7358 -1.97171 3.25158
thorax -5.36585 -0.895602 3.84317
lowerneck -21.6596 2.21149 8.32309
upperneck 24.7122 3.76088 -12.1794
head 12.1468 0.885204 -5.43639
rclavicle -7.55382e-015 5.56597e-015
rhumerus -37.1988 -9.7112 -76.3243
rradius 21.019
rwrist -0.624076
rhand -17.3518 -4.82199
rfingers 7.12502
rthumb 8.89588 -34.6145
lclavicle -7.55382e-015 5.56597e-015
lhumerus -37.1969 5.23007 86.4391
lradius 31.4
lwrist 12.7476
lhand -14.5797 -1.39608
lfingers 7.12502
lthumb 11.5701 28.2645
rfemur -5.19861 -3.45873 24.9879
rtibia 30.7863
rfoot -25.1659 -28.0273
rtoes 0.091386
lfemur -23.4579 -1.01086 -11.8731
ltibia 58.323
lfoot -12.931 13.2836
ltoes -18.1558
113
root -1.53951 17.3584 -27.6531 7.25268 3.00753 -1.95888
lowerback 4.77982 -1.46923 -0.0667208
upperback -2.73671 -1.80267 3.29681
thorax -5.4168 -0.825366 3.63865
lowerneck -21.7126 2.08566 8.25481
upperneck 24.604 3.60813 -12.2346
head 12.0953 0.802643 -5.46616
rclavicle -2.20651e-014 2.38542e-015
rhumerus -37.1507 -10.2541 -75.9664
rradius 20.5353
rwrist -0.0145547
rhand -17.1988 -4.89159
rfingers 7.12502
rthumb 9.04352 -34.6777
lclavicle -2.20651e-014 2.38542e-015
lhumerus -37.2518 5.36474 86.3642
lradius 31.4223
lwrist 13.0348
lhand -15.0116 -1.53599
lfingers 7.12502
lthumb 11.1535 28.1476
rfemur -4.8955 -3.53058 25.3217
rtibia 30.222
rfoot -25.0013 -28.181
rtoes -0.207955
lfemur -25.0987 -0.996888 -11.7537
ltibia 59.882
lfoot -13.1937 12.2155
ltoes -18.4293
114
root -1.54878 17.3569 -27.5699 7.45808 3.32469 -2.1347
lowerback 4.85894 -1.36445 0.33344
upperback -2.76722 -1.62862 3.33249
thorax -5.51495 -0.751519 3.43828
lowerneck -21.6144 1.9404 8.19261
upperneck 24.4583 3.43494 -12.3006
head 11.9967 0.714388 -5.49997
rclavicle -4.48756e-014 3.81667e-014
rhumerus -37.1603 -10.7902 -75.5939
rradius 20.0656
rwrist 0.605284
rhand -17.0315 -4.92303
rfingers 7.12502
rthumb 9.20497 -34.7021
lclavicle -4.48756e-014 3.81667e-014
lhumerus -37.4273 5.52942 86.2588
lradius 31.4383
lwrist 13.2693
lhand -15.3773 -1.73281
lfingers 7.12502
lthumb 10.8008 27.9695
rfemur -4.52966 -3.57874 25.6198
rtibia 29.6227
rfoot -24.8427 -28.3051
rtoes -0.545359
lfemur -26.6808 -0.945188 -11.7086
ltibia 61.1638
lfoot -13.5117 11.1381
ltoes -18.647
115
root -1.55711 17.3569 -27.4836 7.66569 3.64951 -2.25412
lowerback 4.94916 -1.25793 0.678447
upperback -2.83083 -1.45498 3.35086
thorax -5.65135 -0.676149 3.25174
lowerneck -21.4278 1.77574 8.13671
upperneck 24.3033 3.23802 -12.3727
head 11.8742 0.617702 -5.53859
rclavicle -1.16786e-014 0
rhumerus -37.2101 -11.318 -75.2156
rradius 19.619
rwrist 1.20282
rhand -16.8848 -4.95265
rfingers 7.12502
rthumb 9.34651 -34.7254
lclavicle -1.16786e-014 0
lhumerus -37.7069 5.69286 86.132
lradius 31.4619
lwrist 13.4478
lhand -15.6974 -1.80488
lfingers 7.12502
lthumb 10.492 27.9133
rfemur -4.1412 -3.61895 25.8548
rtibia 29.003
rfoot -24.6798 -28.4234
rtoes -0.927268
lfemur -28.2378 -0.870499 -11.7724
ltibia 62.1562
lfoot -13.7625 10.1649
ltoes -18.7035
116
root -1.56521 17.3581 -27.3949 7.85707 3.97983 -2.30548
lowerback 5.0748 -1.15628 0.941825
upperback -2.90045 -1.29232 3.35859
thorax -5.8106 -0.60375 3.10172
lowerneck -21.2366 1.60507 8.07127
upperneck 24.1751 3.03909 -12.4479
head 11.7612 0.518712 -5.5777
rclavicle -5.2181e-015 3.97569e-015
rhumerus -37.2439 -11.8154 -74.8509
rradius 19.2011
rwrist 1.76725
rhand -16.7643 -4.9914
rfingers 7.12502
rthumb 9.46279 -34.7589
lclavicle -5.2181e-015 3.97569e-015
lhumerus -38.0361 5.88573 85.9858
lradius 31.4668
lwrist 13.5353
lhand -15.9977 -1.83095
lfingers 7.12502
lthumb 10.2023 27.9017
rfemur -3.70691 -3.63169 26.022
rtibia 28.352
rfoot -24.4789 -28.5739
rtoes -1.37723
lfemur -29.7349 -0.766036 -11.9593
ltibia 62.8481
lfoot -13.9402 9.42809
ltoes -18.8035
117
root -1.57232 17.3608 -27.3029 8.02092 4.28036 -2.29864
lowerback 5.21977 -1.0444 1.1489
upperback -2.96939 -1.12015 3.34117
thorax -5.97874 -0.525513 2.95581
lowerneck -20.9877 1.43145 8.02198
upperneck 24.0249 2.82963 -12.5164
head 11.6273 0.418957 -5.61567
rclavicle 1.63003e-014 -1.35174e-014
rhumerus -37.2786 -12.3215 -74.4995
rradius 18.7938
rwrist 2.39811
rhand -16.7071 -4.96687
rfingers 7.12502
rthumb 9.51792 -34.7319
lclavicle 1.63003e-014 -1.35174e-014
lhumerus -38.4351 6.07399 85.8093
lradius 31.4793
lwrist 13.5593
lhand -16.2543 -1.74866
lfingers 7.12502
lthumb 9.95483 27.9959
rfemur -3.21177 -3.61763 26.1187
rtibia 27.6741
rfoot -24.2327 -28.7341
rtoes -1.89396
lfemur -31.134 -0.60742 -12.2684
ltibia 63.239
lfoot -14.0648 8.98827
ltoes -18.9046
